<svg width="63" height="63" viewBox="0 0 63 63" fill="none" xmlns="http://www.w3.org/2000/svg">
<path d="M52.7646 17.0059C53.4293 16.9741 54.0936 17.076 54.7178 17.3066C55.342 17.5373 55.9131 17.8922 56.3975 18.3486C56.8817 18.8049 57.2698 19.3536 57.5371 19.9629C57.8045 20.5723 57.9463 21.23 57.9541 21.8955C57.9618 22.5609 57.8351 23.2214 57.582 23.8369C57.3482 24.4056 57.0086 24.9236 56.585 25.3682L40.9189 44.9521C40.888 44.9909 40.8551 45.0281 40.8213 45.0645C40.3683 45.5514 39.8221 45.9426 39.2148 46.2139C38.6075 46.4851 37.9511 46.6312 37.2861 46.6436C36.6213 46.6558 35.9606 46.5346 35.3438 46.2861C34.7268 46.0376 34.1661 45.6672 33.6953 45.1973L33.6943 45.1953L30.0723 41.5732C29.4711 40.9721 29.3275 40.0743 29.666 39.3311L25.1729 44.9521L25.0771 45.0635C24.624 45.5515 24.0767 45.943 23.4688 46.2148C22.8608 46.4867 22.2039 46.6332 21.5381 46.6455C20.8725 46.6578 20.2111 46.5362 19.5938 46.2871C19.0533 46.0691 18.5563 45.7572 18.125 45.3672L17.9443 45.1953L7.52539 34.7773L7.52637 34.7764C7.06355 34.3326 6.68985 33.8039 6.42871 33.2178C6.15816 32.6104 6.01275 31.9548 6.00098 31.29C5.98924 30.6251 6.11133 29.9643 6.36035 29.3477C6.60947 28.7309 6.98083 28.1705 7.45117 27.7002C7.92143 27.23 8.48105 26.8585 9.09766 26.6094C9.71426 26.3603 10.3751 26.2383 11.04 26.25C11.705 26.2617 12.3613 26.4071 12.9688 26.6777C13.5546 26.9388 14.0837 27.3118 14.5273 27.7744L21.1768 34.4209L33.4561 18.7725L33.5498 18.6611L33.6289 18.5752L33.7295 18.4717C34.6598 17.586 35.8982 17.0967 37.1826 17.1064C38.4669 17.1163 39.6975 17.6239 40.6143 18.5234C41.531 19.423 42.0616 20.6439 42.0957 21.9277C42.1287 23.1774 41.687 24.3912 40.8633 25.3281L33.9932 33.9209C34.307 33.6846 34.6853 33.5416 35.085 33.5195C35.6533 33.4882 36.2081 33.7007 36.6104 34.1035L36.9248 34.4189L49.2061 18.7725L49.2754 18.6885C49.714 18.188 50.2493 17.7814 50.8486 17.4922C51.448 17.203 52.0999 17.0376 52.7646 17.0059Z" fill="white" stroke="#0095FF" stroke-width="4" stroke-linejoin="round"/>
</svg>
