<svg width="256" height="256" viewBox="0 0 256 256" fill="none" xmlns="http://www.w3.org/2000/svg">
<path d="M134.881 145.746H167.169C176.353 145.746 182.166 140.689 182.166 132.572C182.166 124.924 176.353 119.409 167.169 119.409H134.881C133.814 119.409 132.886 120.326 132.886 121.243V143.911C133.046 144.978 133.803 145.746 134.881 145.746ZM134.881 197.971H168.246C178.497 197.971 184.619 192.766 184.619 183.571C184.619 175.613 178.806 169.17 168.246 169.17H134.881C133.814 169.17 132.886 170.098 132.886 171.016V195.977C133.046 197.203 133.803 197.971 134.881 197.971ZM253.014 0.567465L157.515 95.824H173.131C197.462 95.824 211.851 111.131 211.851 127.825C211.851 140.999 202.977 150.652 193.483 154.93C191.958 155.549 191.958 157.693 193.633 158.301C204.651 162.589 212.459 174.088 212.459 187.55C212.459 206.537 199.766 221.706 175.126 221.706H107.478C106.411 221.706 105.483 220.788 105.483 219.871V147.74L0.661838 252.171C-0.72483 253.557 0.203171 256 2.18717 256H254.251C254.697 255.994 255.122 255.815 255.437 255.5C255.752 255.185 255.931 254.76 255.937 254.315V1.94351C256.395 0.258121 254.251 -0.659243 253.025 0.556798L253.014 0.567465Z" fill="#989898"/>
</svg>
