<svg width="250" height="250" viewBox="0 0 250 250" fill="none" xmlns="http://www.w3.org/2000/svg">
<path fill-rule="evenodd" clip-rule="evenodd" d="M250 187.348C250 222.019 222.019 250 187.348 250H62.6521C27.9805 250 0 222.019 0 187.348V62.6521C0 27.9805 27.9805 0 62.6521 0H187.348C222.019 0 250 27.9805 250 62.6521V187.348Z" fill="#989898"/>
<path fill-rule="evenodd" clip-rule="evenodd" d="M194.038 143.558C200.121 124.701 211.07 83.3389 214.72 68.1321C217.761 55.3584 218.978 50.4922 212.895 50.4922C208.029 50.4922 194.647 55.9666 191.605 66.3073C187.347 83.3389 178.223 119.227 174.574 132.001C170.316 145.991 161.8 149.032 150.243 149.032C141.727 149.032 136.861 148.424 135.644 143.558C135.036 141.733 133.819 141.125 132.603 141.125H118.613C116.788 141.125 115.571 142.341 115.571 143.558C114.355 149.032 109.489 149.032 100.973 149.032C93.6735 149.032 82.7246 147.816 79.0749 134.434C76.0336 125.31 69.3426 101.587 65.693 88.8134C62.0433 76.0396 51.0944 75.4314 45.62 75.4314C39.5372 75.4314 38.929 76.6479 42.5786 88.8134C46.2282 100.979 54.744 128.959 60.2185 147.208C65.693 165.456 83.3329 171.538 94.89 171.538H114.355C119.829 171.538 122.871 170.322 124.695 169.105C125.912 167.889 127.737 167.889 128.953 169.105C130.778 170.322 134.428 172.147 139.902 172.147H158.759C173.357 171.538 187.956 161.806 194.038 143.558Z" fill="white"/>
<path d="M96.1124 97.9435C101.151 97.9435 105.236 93.8585 105.236 88.8194C105.236 83.7803 101.151 79.6953 96.1124 79.6953C91.0733 79.6953 86.9883 83.7803 86.9883 88.8194C86.9883 93.8585 91.0733 97.9435 96.1124 97.9435Z" fill="white"/>
<path d="M125.933 97.9435C130.972 97.9435 135.057 93.8585 135.057 88.8194C135.057 83.7803 130.972 79.6953 125.933 79.6953C120.894 79.6953 116.809 83.7803 116.809 88.8194C116.809 93.8585 120.894 97.9435 125.933 97.9435Z" fill="white"/>
<path d="M156.347 97.9435C161.386 97.9435 165.471 93.8585 165.471 88.8194C165.471 83.7803 161.386 79.6953 156.347 79.6953C151.308 79.6953 147.223 83.7803 147.223 88.8194C147.223 93.8585 151.308 97.9435 156.347 97.9435Z" fill="white"/>
<path d="M96.1124 130.779C101.151 130.779 105.236 126.694 105.236 121.655C105.236 116.616 101.151 112.531 96.1124 112.531C91.0733 112.531 86.9883 116.616 86.9883 121.655C86.9883 126.694 91.0733 130.779 96.1124 130.779Z" fill="white"/>
<path d="M125.933 130.779C130.972 130.779 135.057 126.694 135.057 121.655C135.057 116.616 130.972 112.531 125.933 112.531C120.894 112.531 116.809 116.616 116.809 121.655C116.809 126.694 120.894 130.779 125.933 130.779Z" fill="white"/>
<path d="M156.347 130.779C161.386 130.779 165.471 126.694 165.471 121.655C165.471 116.616 161.386 112.531 156.347 112.531C151.308 112.531 147.223 116.616 147.223 121.655C147.223 126.694 151.308 130.779 156.347 130.779Z" fill="white"/>
<path fill-rule="evenodd" clip-rule="evenodd" d="M49.2794 177.02C38.9388 177.02 31.0312 185.535 31.0312 195.268C31.0312 205 39.5471 213.516 49.2794 213.516C59.0118 213.516 67.5276 205 67.5276 195.268C67.5276 185.535 59.0118 177.02 49.2794 177.02ZM49.2794 202.567C45.6298 202.567 42.5884 199.526 42.5884 195.876C42.5884 192.226 45.6298 189.185 49.2794 189.185C52.9291 189.185 55.9704 192.226 55.9704 195.876C55.3622 199.526 52.9291 202.567 49.2794 202.567ZM201.348 177.02C191.007 177.02 183.099 185.535 183.099 195.268C183.099 205 191.615 213.516 201.348 213.516C211.08 213.516 219.596 205 219.596 195.268C219.596 185.535 211.688 177.02 201.348 177.02ZM201.348 202.567C197.698 202.567 194.657 199.526 194.657 195.876C194.657 192.226 197.698 189.185 201.348 189.185C204.997 189.185 208.039 192.226 208.039 195.876C208.039 199.526 204.997 202.567 201.348 202.567Z" fill="white"/>
</svg>
