<?xml version="1.0" encoding="UTF-8"?>
<svg id="Layer_2" xmlns="http://www.w3.org/2000/svg" viewBox="0 0 378.2 98.28">
  <defs>
    <style>
      .cls-1 {
        fill: #662d91;
      }

      .cls-2 {
        fill: #231f20;
      }
    </style>
  </defs>
  <g id="Layer_1-2" data-name="Layer_1">
    <g>
      <path d="M26.61,33.5c-.46-.48-1.1-.75-1.77-.75H0l30.34,31.03c.94.96.94,2.49,0,3.45L0,98.28h24.84c.67,0,1.3-.27,1.77-.75l29.48-30.3c.93-.96.93-2.48,0-3.44l-29.49-30.29Z"/>
      <path class="cls-1" d="M67.71.75C68.17.27,68.81,0,69.47,0h24.85s-30.34,31.03-30.34,31.03c-.94.96-.94,2.49,0,3.45l30.34,31.04h-24.84c-.67,0-1.3-.27-1.77-.75l-29.48-30.3c-.93-.96-.93-2.48,0-3.44L67.71.75Z"/>
    </g>
    <g>
      <path class="cls-2" d="M149.15,19.55v62.11h-11.75V19.55h11.75Z"/>
      <path class="cls-2" d="M160.52,45.74c1.87-3.64,4.42-6.43,7.64-8.39,3.22-1.96,6.81-2.94,10.79-2.94,3.47,0,6.5.7,9.11,2.1,2.6,1.4,4.69,3.16,6.25,5.29v-6.63h11.83v46.5h-11.83v-6.8c-1.51,2.18-3.6,3.99-6.25,5.41-2.66,1.43-5.72,2.14-9.19,2.14-3.92,0-7.48-1.01-10.7-3.02-3.22-2.01-5.76-4.85-7.64-8.52-1.88-3.66-2.81-7.88-2.81-12.63s.94-8.87,2.81-12.51ZM192.63,51.07c-1.12-2.04-2.63-3.61-4.53-4.7-1.9-1.09-3.94-1.64-6.13-1.64s-4.2.53-6.04,1.59c-1.85,1.06-3.34,2.62-4.49,4.66-1.15,2.04-1.72,4.46-1.72,7.26s.57,5.25,1.72,7.34c1.15,2.1,2.66,3.71,4.53,4.83,1.87,1.12,3.87,1.68,6,1.68s4.22-.55,6.13-1.64c1.9-1.09,3.41-2.66,4.53-4.7,1.12-2.04,1.68-4.49,1.68-7.34s-.56-5.3-1.68-7.34Z"/>
      <path class="cls-2" d="M243.32,81.66l-9.57-14.44-8.48,14.44h-12.59l15.19-23.33-15.36-23.17h13.26l9.48,14.35,8.56-14.35h12.59l-15.28,23.17,15.44,23.33h-13.26Z"/>
      <path class="cls-2" d="M263.76,27.65c-1.37-1.31-2.06-2.95-2.06-4.91s.68-3.59,2.06-4.91c1.37-1.31,3.09-1.97,5.16-1.97s3.79.66,5.16,1.97c1.37,1.32,2.06,2.95,2.06,4.91s-.69,3.6-2.06,4.91c-1.37,1.32-3.09,1.97-5.16,1.97s-3.79-.66-5.16-1.97ZM274.71,35.16v46.5h-11.75v-46.5h11.75Z"/>
      <path class="cls-2" d="M286.25,80.28c-1.37-1.31-2.06-2.95-2.06-4.91s.68-3.6,2.06-4.91c1.37-1.31,3.12-1.97,5.25-1.97s3.78.66,5.12,1.97c1.34,1.31,2.01,2.95,2.01,4.91s-.67,3.6-2.01,4.91c-1.34,1.32-3.05,1.97-5.12,1.97s-3.88-.66-5.25-1.97Z"/>
      <path class="cls-2" d="M307.91,45.74c1.87-3.64,4.42-6.43,7.64-8.39,3.22-1.96,6.81-2.94,10.79-2.94,3.47,0,6.5.7,9.11,2.1,2.6,1.4,4.69,3.16,6.25,5.29v-6.63h11.83v46.5h-11.83v-6.8c-1.51,2.18-3.6,3.99-6.25,5.41-2.66,1.43-5.72,2.14-9.19,2.14-3.92,0-7.49-1.01-10.7-3.02-3.22-2.01-5.76-4.85-7.64-8.52-1.88-3.66-2.81-7.88-2.81-12.63s.94-8.87,2.81-12.51ZM340.01,51.07c-1.12-2.04-2.63-3.61-4.53-4.7-1.9-1.09-3.95-1.64-6.13-1.64s-4.2.53-6.04,1.59c-1.85,1.06-3.34,2.62-4.49,4.66-1.15,2.04-1.72,4.46-1.72,7.26s.57,5.25,1.72,7.34c1.15,2.1,2.66,3.71,4.53,4.83,1.87,1.12,3.87,1.68,6,1.68s4.22-.55,6.13-1.64c1.9-1.09,3.41-2.66,4.53-4.7,1.12-2.04,1.68-4.49,1.68-7.34s-.56-5.3-1.68-7.34Z"/>
      <path class="cls-2" d="M365.82,27.65c-1.37-1.31-2.06-2.95-2.06-4.91s.68-3.59,2.06-4.91c1.37-1.31,3.09-1.97,5.16-1.97s3.79.66,5.16,1.97c1.37,1.32,2.06,2.95,2.06,4.91s-.69,3.6-2.06,4.91c-1.37,1.32-3.09,1.97-5.16,1.97s-3.79-.66-5.16-1.97ZM376.78,35.16v46.5h-11.75v-46.5h11.75Z"/>
    </g>
  </g>
</svg>